<svg width="23" height="17" viewBox="0 0 23 17" fill="none" xmlns="http://www.w3.org/2000/svg">
<path d="M14.9178 12.1125C15.8561 11.1208 16.3252 9.91667 16.3252 8.5C16.3252 7.08333 15.8561 5.87917 14.9178 4.8875C13.9796 3.89583 12.8403 3.4 11.5 3.4C10.1597 3.4 9.0204 3.89583 8.08217 4.8875C7.14394 5.87917 6.67482 7.08333 6.67482 8.5C6.67482 9.91667 7.14394 11.1208 8.08217 12.1125C9.0204 13.1042 10.1597 13.6 11.5 13.6C12.8403 13.6 13.9796 13.1042 14.9178 12.1125ZM9.4493 10.6675C8.88636 10.0725 8.6049 9.35 8.6049 8.5C8.6049 7.65 8.88636 6.9275 9.4493 6.3325C10.0122 5.7375 10.6958 5.44 11.5 5.44C12.3042 5.44 12.9878 5.7375 13.5507 6.3325C14.1136 6.9275 14.3951 7.65 14.3951 8.5C14.3951 9.35 14.1136 10.0725 13.5507 10.6675C12.9878 11.2625 12.3042 11.56 11.5 11.56C10.6958 11.56 10.0122 11.2625 9.4493 10.6675ZM4.9458 14.96C2.97106 13.6 1.41181 11.8056 0.268065 9.57667C0.17871 9.40667 0.111694 9.23195 0.0670163 9.0525C0.0223388 8.87306 0 8.68889 0 8.5C0 8.31111 0.0223388 8.12695 0.0670163 7.9475C0.111694 7.76806 0.17871 7.59333 0.268065 7.42333C1.41181 5.19445 2.97106 3.4 4.9458 2.04C6.92055 0.68 9.10528 0 11.5 0C13.8947 0 16.0794 0.68 18.0542 2.04C20.0289 3.4 21.5882 5.19445 22.7319 7.42333C22.8213 7.59333 22.8883 7.76806 22.933 7.9475C22.9777 8.12695 23 8.31111 23 8.5C23 8.68889 22.9777 8.87306 22.933 9.0525C22.8883 9.23195 22.8213 9.40667 22.7319 9.57667C21.5882 11.8056 20.0289 13.6 18.0542 14.96C16.0794 16.32 13.8947 17 11.5 17C9.10528 17 6.92055 16.32 4.9458 14.96ZM17.0624 13.0475C18.7512 11.9236 20.0423 10.4078 20.9359 8.5C20.0423 6.59222 18.7512 5.07639 17.0624 3.9525C15.3735 2.82861 13.5194 2.26667 11.5 2.26667C9.48057 2.26667 7.62646 2.82861 5.93765 3.9525C4.24883 5.07639 2.95765 6.59222 2.0641 8.5C2.95765 10.4078 4.24883 11.9236 5.93765 13.0475C7.62646 14.1714 9.48057 14.7333 11.5 14.7333C13.5194 14.7333 15.3735 14.1714 17.0624 13.0475Z" fill="#DADADA"/>
</svg>
